<mxfile host="app.diagrams.net" modified="2023-05-15T05:04:48.541Z" agent="Mozilla/5.0 (Windows NT 10.0; Win64; x64) AppleWebKit/537.36 (KHTML, like Gecko) Chrome/113.0.0.0 Safari/537.36" etag="HqvyBPEBpkTDtcuZaYd9" version="21.3.0" type="device">
  <diagram name="Page-1" id="c4acf3e9-155e-7222-9cf6-157b1a14988f">
    <mxGraphModel dx="1050" dy="691" grid="1" gridSize="10" guides="1" tooltips="1" connect="1" arrows="1" fold="1" page="1" pageScale="1" pageWidth="850" pageHeight="1100" background="none" math="0" shadow="0">
      <root>
        <mxCell id="0" />
        <mxCell id="1" parent="0" />
        <mxCell id="gyEEkD2OKrhxwZsMClHx-1" value="CommandProcessor" style="swimlane;fontStyle=1;align=center;verticalAlign=top;childLayout=stackLayout;horizontal=1;startSize=26;horizontalStack=0;resizeParent=1;resizeParentMax=0;resizeLast=0;collapsible=1;marginBottom=0;whiteSpace=wrap;html=1;" parent="1" vertex="1">
          <mxGeometry x="656" y="235" width="190" height="100" as="geometry" />
        </mxCell>
        <mxCell id="gyEEkD2OKrhxwZsMClHx-2" value="- _cmds: List&amp;lt;Command&amp;gt;" style="text;strokeColor=none;fillColor=none;align=left;verticalAlign=top;spacingLeft=4;spacingRight=4;overflow=hidden;rotatable=0;points=[[0,0.5],[1,0.5]];portConstraint=eastwest;whiteSpace=wrap;html=1;" parent="gyEEkD2OKrhxwZsMClHx-1" vertex="1">
          <mxGeometry y="26" width="190" height="26" as="geometry" />
        </mxCell>
        <mxCell id="gyEEkD2OKrhxwZsMClHx-3" value="" style="line;strokeWidth=1;fillColor=none;align=left;verticalAlign=middle;spacingTop=-1;spacingLeft=3;spacingRight=3;rotatable=0;labelPosition=right;points=[];portConstraint=eastwest;strokeColor=inherit;" parent="gyEEkD2OKrhxwZsMClHx-1" vertex="1">
          <mxGeometry y="52" width="190" height="8" as="geometry" />
        </mxCell>
        <mxCell id="gyEEkD2OKrhxwZsMClHx-4" value="+ Execute(Player p, string[] text) :: string &amp;lt;&amp;lt;override&amp;gt;&amp;gt;" style="text;strokeColor=none;fillColor=none;align=left;verticalAlign=top;spacingLeft=4;spacingRight=4;overflow=hidden;rotatable=0;points=[[0,0.5],[1,0.5]];portConstraint=eastwest;whiteSpace=wrap;html=1;" parent="gyEEkD2OKrhxwZsMClHx-1" vertex="1">
          <mxGeometry y="60" width="190" height="40" as="geometry" />
        </mxCell>
        <mxCell id="r4HovYRIJpQVSQgWtDEo-1" value="&amp;lt;&amp;lt;abstract&amp;gt;&amp;gt;&lt;br&gt;&lt;b&gt;Command&lt;/b&gt;" style="html=1;whiteSpace=wrap;" vertex="1" parent="1">
          <mxGeometry x="704" y="115" width="95" height="50" as="geometry" />
        </mxCell>
        <mxCell id="r4HovYRIJpQVSQgWtDEo-2" value="" style="endArrow=block;endFill=0;endSize=12;html=1;rounded=0;entryX=0.25;entryY=1;entryDx=0;entryDy=0;" edge="1" parent="1">
          <mxGeometry width="160" relative="1" as="geometry">
            <mxPoint x="728" y="235" as="sourcePoint" />
            <mxPoint x="727.75" y="165" as="targetPoint" />
          </mxGeometry>
        </mxCell>
        <mxCell id="r4HovYRIJpQVSQgWtDEo-3" value="" style="endArrow=diamondThin;endFill=0;endSize=24;html=1;rounded=0;exitX=0.75;exitY=1;exitDx=0;exitDy=0;" edge="1" parent="1" source="r4HovYRIJpQVSQgWtDEo-1">
          <mxGeometry width="160" relative="1" as="geometry">
            <mxPoint x="546" y="375" as="sourcePoint" />
            <mxPoint x="776" y="235" as="targetPoint" />
          </mxGeometry>
        </mxCell>
        <mxCell id="r4HovYRIJpQVSQgWtDEo-4" value="LookCommand" style="swimlane;fontStyle=1;align=center;verticalAlign=top;childLayout=stackLayout;horizontal=1;startSize=26;horizontalStack=0;resizeParent=1;resizeParentMax=0;resizeLast=0;collapsible=1;marginBottom=0;whiteSpace=wrap;html=1;" vertex="1" parent="1">
          <mxGeometry x="4" y="115" width="190" height="196" as="geometry" />
        </mxCell>
        <mxCell id="r4HovYRIJpQVSQgWtDEo-12" value="&lt;span style=&quot;font-size: 18px;&quot;&gt;&amp;nbsp;&lt;/span&gt;" style="text;strokeColor=none;fillColor=none;align=left;verticalAlign=top;spacingLeft=4;spacingRight=4;overflow=hidden;rotatable=0;points=[[0,0.5],[1,0.5]];portConstraint=eastwest;whiteSpace=wrap;html=1;" vertex="1" parent="r4HovYRIJpQVSQgWtDEo-4">
          <mxGeometry y="26" width="190" height="26" as="geometry" />
        </mxCell>
        <mxCell id="r4HovYRIJpQVSQgWtDEo-6" value="" style="line;strokeWidth=1;fillColor=none;align=left;verticalAlign=middle;spacingTop=-1;spacingLeft=3;spacingRight=3;rotatable=0;labelPosition=right;points=[];portConstraint=eastwest;strokeColor=inherit;" vertex="1" parent="r4HovYRIJpQVSQgWtDEo-4">
          <mxGeometry y="52" width="190" height="8" as="geometry" />
        </mxCell>
        <mxCell id="r4HovYRIJpQVSQgWtDEo-8" value="&lt;font style=&quot;font-size: 18px;&quot;&gt;...&lt;/font&gt;" style="text;strokeColor=none;fillColor=none;align=left;verticalAlign=top;spacingLeft=4;spacingRight=4;overflow=hidden;rotatable=0;points=[[0,0.5],[1,0.5]];portConstraint=eastwest;whiteSpace=wrap;html=1;" vertex="1" parent="r4HovYRIJpQVSQgWtDEo-4">
          <mxGeometry y="60" width="190" height="26" as="geometry" />
        </mxCell>
        <mxCell id="r4HovYRIJpQVSQgWtDEo-7" value="+ Execute(Player p, string[] text) :: string &amp;lt;&amp;lt;override&amp;gt;&amp;gt;" style="text;strokeColor=none;fillColor=none;align=left;verticalAlign=top;spacingLeft=4;spacingRight=4;overflow=hidden;rotatable=0;points=[[0,0.5],[1,0.5]];portConstraint=eastwest;whiteSpace=wrap;html=1;" vertex="1" parent="r4HovYRIJpQVSQgWtDEo-4">
          <mxGeometry y="86" width="190" height="40" as="geometry" />
        </mxCell>
        <mxCell id="r4HovYRIJpQVSQgWtDEo-9" value="&lt;font style=&quot;font-size: 18px;&quot;&gt;...&lt;/font&gt;" style="text;strokeColor=none;fillColor=none;align=left;verticalAlign=top;spacingLeft=4;spacingRight=4;overflow=hidden;rotatable=0;points=[[0,0.5],[1,0.5]];portConstraint=eastwest;whiteSpace=wrap;html=1;" vertex="1" parent="r4HovYRIJpQVSQgWtDEo-4">
          <mxGeometry y="126" width="190" height="26" as="geometry" />
        </mxCell>
        <mxCell id="r4HovYRIJpQVSQgWtDEo-10" value="&lt;font style=&quot;font-size: 12px;&quot;&gt;# FetchContainer(Player p, string contrainerId) :: IHaveInventory&lt;/font&gt;" style="text;strokeColor=none;fillColor=none;align=left;verticalAlign=top;spacingLeft=4;spacingRight=4;overflow=hidden;rotatable=0;points=[[0,0.5],[1,0.5]];portConstraint=eastwest;whiteSpace=wrap;html=1;" vertex="1" parent="r4HovYRIJpQVSQgWtDEo-4">
          <mxGeometry y="152" width="190" height="44" as="geometry" />
        </mxCell>
        <mxCell id="r4HovYRIJpQVSQgWtDEo-14" value="" style="endArrow=block;endFill=0;endSize=12;html=1;rounded=0;entryX=0;entryY=0.5;entryDx=0;entryDy=0;exitX=1;exitY=0.5;exitDx=0;exitDy=0;" edge="1" parent="1" target="r4HovYRIJpQVSQgWtDEo-1">
          <mxGeometry width="160" relative="1" as="geometry">
            <mxPoint x="566" y="140" as="sourcePoint" />
            <mxPoint x="737.75" y="175" as="targetPoint" />
          </mxGeometry>
        </mxCell>
        <mxCell id="r4HovYRIJpQVSQgWtDEo-15" value="" style="endArrow=block;endFill=0;endSize=12;html=1;rounded=0;entryX=0;entryY=0.25;entryDx=0;entryDy=0;exitX=1.005;exitY=0.056;exitDx=0;exitDy=0;exitPerimeter=0;" edge="1" parent="1" source="r4HovYRIJpQVSQgWtDEo-4">
          <mxGeometry width="160" relative="1" as="geometry">
            <mxPoint x="514" y="150" as="sourcePoint" />
            <mxPoint x="344" y="127.5" as="targetPoint" />
          </mxGeometry>
        </mxCell>
        <mxCell id="r4HovYRIJpQVSQgWtDEo-26" value="&lt;span style=&quot;font-weight: normal;&quot;&gt;&amp;lt;&amp;lt; abstract &amp;gt;&amp;gt;&lt;br&gt;&lt;/span&gt;ItemManipulateCommand" style="swimlane;fontStyle=1;align=center;verticalAlign=top;childLayout=stackLayout;horizontal=1;startSize=40;horizontalStack=0;resizeParent=1;resizeParentMax=0;resizeLast=0;collapsible=1;marginBottom=0;whiteSpace=wrap;html=1;" vertex="1" parent="1">
          <mxGeometry x="344" y="108" width="230" height="310" as="geometry" />
        </mxCell>
        <mxCell id="r4HovYRIJpQVSQgWtDEo-27" value="&amp;nbsp;" style="text;strokeColor=none;fillColor=none;align=left;verticalAlign=top;spacingLeft=4;spacingRight=4;overflow=hidden;rotatable=0;points=[[0,0.5],[1,0.5]];portConstraint=eastwest;whiteSpace=wrap;html=1;" vertex="1" parent="r4HovYRIJpQVSQgWtDEo-26">
          <mxGeometry y="40" width="230" height="26" as="geometry" />
        </mxCell>
        <mxCell id="r4HovYRIJpQVSQgWtDEo-28" value="" style="line;strokeWidth=1;fillColor=none;align=left;verticalAlign=middle;spacingTop=-1;spacingLeft=3;spacingRight=3;rotatable=0;labelPosition=right;points=[];portConstraint=eastwest;strokeColor=inherit;" vertex="1" parent="r4HovYRIJpQVSQgWtDEo-26">
          <mxGeometry y="66" width="230" height="8" as="geometry" />
        </mxCell>
        <mxCell id="r4HovYRIJpQVSQgWtDEo-34" value="+&amp;nbsp;ItemManipulateCommand(string[] ids)" style="text;strokeColor=none;fillColor=none;align=left;verticalAlign=top;spacingLeft=4;spacingRight=4;overflow=hidden;rotatable=0;points=[[0,0.5],[1,0.5]];portConstraint=eastwest;whiteSpace=wrap;html=1;" vertex="1" parent="r4HovYRIJpQVSQgWtDEo-26">
          <mxGeometry y="74" width="230" height="46" as="geometry" />
        </mxCell>
        <mxCell id="r4HovYRIJpQVSQgWtDEo-33" value="# AdverbKeyword :: string &amp;lt;&amp;lt; property &amp;gt;&amp;gt;" style="text;strokeColor=none;fillColor=none;align=left;verticalAlign=top;spacingLeft=4;spacingRight=4;overflow=hidden;rotatable=0;points=[[0,0.5],[1,0.5]];portConstraint=eastwest;whiteSpace=wrap;html=1;" vertex="1" parent="r4HovYRIJpQVSQgWtDEo-26">
          <mxGeometry y="120" width="230" height="50" as="geometry" />
        </mxCell>
        <mxCell id="r4HovYRIJpQVSQgWtDEo-30" value="+ Execute(Player p, string[] text) :: string &amp;lt;&amp;lt;override&amp;gt;&amp;gt;" style="text;strokeColor=none;fillColor=none;align=left;verticalAlign=top;spacingLeft=4;spacingRight=4;overflow=hidden;rotatable=0;points=[[0,0.5],[1,0.5]];portConstraint=eastwest;whiteSpace=wrap;html=1;" vertex="1" parent="r4HovYRIJpQVSQgWtDEo-26">
          <mxGeometry y="170" width="230" height="40" as="geometry" />
        </mxCell>
        <mxCell id="r4HovYRIJpQVSQgWtDEo-32" value="&lt;font style=&quot;font-size: 12px;&quot;&gt;# FetchContainer(Player p, string contrainerId) :: IHaveInventory&lt;/font&gt;" style="text;strokeColor=none;fillColor=none;align=left;verticalAlign=top;spacingLeft=4;spacingRight=4;overflow=hidden;rotatable=0;points=[[0,0.5],[1,0.5]];portConstraint=eastwest;whiteSpace=wrap;html=1;" vertex="1" parent="r4HovYRIJpQVSQgWtDEo-26">
          <mxGeometry y="210" width="230" height="44" as="geometry" />
        </mxCell>
        <mxCell id="r4HovYRIJpQVSQgWtDEo-36" value="&lt;font style=&quot;font-size: 12px;&quot;&gt;#&amp;nbsp;MoveItem(string thingId, IHaveInventory fromContainer, IHaveInventory toContainer) :: string&lt;/font&gt;" style="text;strokeColor=none;fillColor=none;align=left;verticalAlign=top;spacingLeft=4;spacingRight=4;overflow=hidden;rotatable=0;points=[[0,0.5],[1,0.5]];portConstraint=eastwest;whiteSpace=wrap;html=1;" vertex="1" parent="r4HovYRIJpQVSQgWtDEo-26">
          <mxGeometry y="254" width="230" height="56" as="geometry" />
        </mxCell>
        <mxCell id="r4HovYRIJpQVSQgWtDEo-37" value="&lt;b&gt;MoveCommand&lt;/b&gt;" style="html=1;whiteSpace=wrap;" vertex="1" parent="1">
          <mxGeometry x="594" y="30" width="110" height="50" as="geometry" />
        </mxCell>
        <mxCell id="r4HovYRIJpQVSQgWtDEo-38" value="" style="endArrow=block;endFill=0;endSize=12;html=1;rounded=0;entryX=0.5;entryY=0;entryDx=0;entryDy=0;exitX=1;exitY=0.5;exitDx=0;exitDy=0;" edge="1" parent="1" source="r4HovYRIJpQVSQgWtDEo-37" target="r4HovYRIJpQVSQgWtDEo-1">
          <mxGeometry width="160" relative="1" as="geometry">
            <mxPoint x="576" y="150" as="sourcePoint" />
            <mxPoint x="714" y="150" as="targetPoint" />
            <Array as="points">
              <mxPoint x="752" y="55" />
            </Array>
          </mxGeometry>
        </mxCell>
        <mxCell id="r4HovYRIJpQVSQgWtDEo-39" value="TakeCommand" style="swimlane;fontStyle=1;align=center;verticalAlign=top;childLayout=stackLayout;horizontal=1;startSize=26;horizontalStack=0;resizeParent=1;resizeParentMax=0;resizeLast=0;collapsible=1;marginBottom=0;whiteSpace=wrap;html=1;" vertex="1" parent="1">
          <mxGeometry x="4" y="374" width="190" height="140" as="geometry" />
        </mxCell>
        <mxCell id="r4HovYRIJpQVSQgWtDEo-40" value="&lt;span style=&quot;font-size: 18px;&quot;&gt;&amp;nbsp;&lt;/span&gt;" style="text;strokeColor=none;fillColor=none;align=left;verticalAlign=top;spacingLeft=4;spacingRight=4;overflow=hidden;rotatable=0;points=[[0,0.5],[1,0.5]];portConstraint=eastwest;whiteSpace=wrap;html=1;" vertex="1" parent="r4HovYRIJpQVSQgWtDEo-39">
          <mxGeometry y="26" width="190" height="26" as="geometry" />
        </mxCell>
        <mxCell id="r4HovYRIJpQVSQgWtDEo-41" value="" style="line;strokeWidth=1;fillColor=none;align=left;verticalAlign=middle;spacingTop=-1;spacingLeft=3;spacingRight=3;rotatable=0;labelPosition=right;points=[];portConstraint=eastwest;strokeColor=inherit;" vertex="1" parent="r4HovYRIJpQVSQgWtDEo-39">
          <mxGeometry y="52" width="190" height="8" as="geometry" />
        </mxCell>
        <mxCell id="r4HovYRIJpQVSQgWtDEo-43" value="+ TakeCommand()" style="text;strokeColor=none;fillColor=none;align=left;verticalAlign=top;spacingLeft=4;spacingRight=4;overflow=hidden;rotatable=0;points=[[0,0.5],[1,0.5]];portConstraint=eastwest;whiteSpace=wrap;html=1;" vertex="1" parent="r4HovYRIJpQVSQgWtDEo-39">
          <mxGeometry y="60" width="190" height="40" as="geometry" />
        </mxCell>
        <mxCell id="r4HovYRIJpQVSQgWtDEo-64" style="edgeStyle=orthogonalEdgeStyle;rounded=0;orthogonalLoop=1;jettySize=auto;html=1;exitX=0.579;exitY=0.986;exitDx=0;exitDy=0;endArrow=none;endFill=0;dashed=1;exitPerimeter=0;" edge="1" parent="r4HovYRIJpQVSQgWtDEo-39" source="r4HovYRIJpQVSQgWtDEo-58">
          <mxGeometry relative="1" as="geometry">
            <mxPoint x="300" y="175.9999999999999" as="targetPoint" />
            <Array as="points">
              <mxPoint x="110" y="176" />
            </Array>
          </mxGeometry>
        </mxCell>
        <mxCell id="r4HovYRIJpQVSQgWtDEo-58" value="+ Execute(Player p, string[] text) :: string &amp;lt;&amp;lt;override&amp;gt;&amp;gt;" style="text;strokeColor=none;fillColor=none;align=left;verticalAlign=top;spacingLeft=4;spacingRight=4;overflow=hidden;rotatable=0;points=[[0,0.5],[1,0.5]];portConstraint=eastwest;whiteSpace=wrap;html=1;" vertex="1" parent="r4HovYRIJpQVSQgWtDEo-39">
          <mxGeometry y="100" width="190" height="40" as="geometry" />
        </mxCell>
        <mxCell id="r4HovYRIJpQVSQgWtDEo-46" value="DropCommand" style="swimlane;fontStyle=1;align=center;verticalAlign=top;childLayout=stackLayout;horizontal=1;startSize=26;horizontalStack=0;resizeParent=1;resizeParentMax=0;resizeLast=0;collapsible=1;marginBottom=0;whiteSpace=wrap;html=1;" vertex="1" parent="1">
          <mxGeometry x="4" y="568" width="190" height="140" as="geometry" />
        </mxCell>
        <mxCell id="r4HovYRIJpQVSQgWtDEo-47" value="&lt;span style=&quot;font-size: 18px;&quot;&gt;&amp;nbsp;&lt;/span&gt;" style="text;strokeColor=none;fillColor=none;align=left;verticalAlign=top;spacingLeft=4;spacingRight=4;overflow=hidden;rotatable=0;points=[[0,0.5],[1,0.5]];portConstraint=eastwest;whiteSpace=wrap;html=1;" vertex="1" parent="r4HovYRIJpQVSQgWtDEo-46">
          <mxGeometry y="26" width="190" height="26" as="geometry" />
        </mxCell>
        <mxCell id="r4HovYRIJpQVSQgWtDEo-48" value="" style="line;strokeWidth=1;fillColor=none;align=left;verticalAlign=middle;spacingTop=-1;spacingLeft=3;spacingRight=3;rotatable=0;labelPosition=right;points=[];portConstraint=eastwest;strokeColor=inherit;" vertex="1" parent="r4HovYRIJpQVSQgWtDEo-46">
          <mxGeometry y="52" width="190" height="8" as="geometry" />
        </mxCell>
        <mxCell id="r4HovYRIJpQVSQgWtDEo-57" value="+ DropCommand()" style="text;strokeColor=none;fillColor=none;align=left;verticalAlign=top;spacingLeft=4;spacingRight=4;overflow=hidden;rotatable=0;points=[[0,0.5],[1,0.5]];portConstraint=eastwest;whiteSpace=wrap;html=1;" vertex="1" parent="r4HovYRIJpQVSQgWtDEo-46">
          <mxGeometry y="60" width="190" height="40" as="geometry" />
        </mxCell>
        <mxCell id="r4HovYRIJpQVSQgWtDEo-50" value="+ Execute(Player p, string[] text) :: string &amp;lt;&amp;lt;override&amp;gt;&amp;gt;" style="text;strokeColor=none;fillColor=none;align=left;verticalAlign=top;spacingLeft=4;spacingRight=4;overflow=hidden;rotatable=0;points=[[0,0.5],[1,0.5]];portConstraint=eastwest;whiteSpace=wrap;html=1;" vertex="1" parent="r4HovYRIJpQVSQgWtDEo-46">
          <mxGeometry y="100" width="190" height="40" as="geometry" />
        </mxCell>
        <mxCell id="r4HovYRIJpQVSQgWtDEo-55" value="" style="endArrow=none;endFill=0;endSize=12;html=1;rounded=0;exitX=1.005;exitY=0.062;exitDx=0;exitDy=0;exitPerimeter=0;" edge="1" parent="1">
          <mxGeometry width="160" relative="1" as="geometry">
            <mxPoint x="194.95000000000005" y="389.15200000000004" as="sourcePoint" />
            <mxPoint x="264" y="127" as="targetPoint" />
            <Array as="points">
              <mxPoint x="264" y="389" />
            </Array>
          </mxGeometry>
        </mxCell>
        <mxCell id="r4HovYRIJpQVSQgWtDEo-56" value="" style="endArrow=none;endFill=0;endSize=12;html=1;rounded=0;exitX=1.005;exitY=0.062;exitDx=0;exitDy=0;exitPerimeter=0;" edge="1" parent="1">
          <mxGeometry width="160" relative="1" as="geometry">
            <mxPoint x="195.00000000000006" y="581.072" as="sourcePoint" />
            <mxPoint x="264.05" y="318.91999999999996" as="targetPoint" />
            <Array as="points">
              <mxPoint x="264.05" y="580.92" />
            </Array>
          </mxGeometry>
        </mxCell>
        <mxCell id="r4HovYRIJpQVSQgWtDEo-59" value="&lt;p style=&quot;margin:0px;margin-top:4px;text-align:center;&quot;&gt;&lt;i&gt;&amp;lt;&amp;lt;Interface&amp;gt;&amp;gt;&lt;/i&gt;&lt;br&gt;&lt;b&gt;IHaveInventory&lt;/b&gt;&lt;/p&gt;&lt;hr size=&quot;1&quot;&gt;&lt;p style=&quot;margin:0px;margin-left:4px;&quot;&gt;&amp;nbsp;&lt;/p&gt;&lt;hr size=&quot;1&quot;&gt;&lt;p style=&quot;margin:0px;margin-left:4px;&quot;&gt;+ Locate(string id) :: GameObject&lt;br&gt;&lt;br&gt;&lt;/p&gt;&lt;p style=&quot;margin:0px;margin-left:4px;&quot;&gt;+ Name: string &amp;lt;&amp;lt; readonly, property &amp;gt;&amp;gt;&lt;/p&gt;&lt;p style=&quot;margin:0px;margin-left:4px;&quot;&gt;+ Inventory: Inventory &amp;lt;&amp;lt; readonly, property &amp;gt;&amp;gt;&lt;/p&gt;" style="verticalAlign=top;align=left;overflow=fill;fontSize=12;fontFamily=Helvetica;html=1;whiteSpace=wrap;" vertex="1" parent="1">
          <mxGeometry x="374" y="530" width="220" height="150" as="geometry" />
        </mxCell>
        <mxCell id="r4HovYRIJpQVSQgWtDEo-60" value="Use" style="endArrow=open;endSize=12;dashed=1;html=1;rounded=0;exitX=1;exitY=0.5;exitDx=0;exitDy=0;" edge="1" parent="1" source="r4HovYRIJpQVSQgWtDEo-10">
          <mxGeometry x="0.8186" width="160" relative="1" as="geometry">
            <mxPoint x="294" y="430" as="sourcePoint" />
            <mxPoint x="374" y="550" as="targetPoint" />
            <Array as="points">
              <mxPoint x="304" y="289" />
              <mxPoint x="304" y="550" />
            </Array>
            <mxPoint as="offset" />
          </mxGeometry>
        </mxCell>
        <mxCell id="r4HovYRIJpQVSQgWtDEo-65" style="edgeStyle=orthogonalEdgeStyle;rounded=0;orthogonalLoop=1;jettySize=auto;html=1;endArrow=none;endFill=0;dashed=1;" edge="1" parent="1">
          <mxGeometry relative="1" as="geometry">
            <mxPoint x="304" y="550" as="targetPoint" />
            <mxPoint x="114" y="710" as="sourcePoint" />
            <Array as="points">
              <mxPoint x="114" y="730" />
              <mxPoint x="304" y="730" />
            </Array>
          </mxGeometry>
        </mxCell>
        <mxCell id="r4HovYRIJpQVSQgWtDEo-66" value="Use" style="endArrow=open;endSize=12;dashed=1;html=1;rounded=0;" edge="1" parent="1">
          <mxGeometry x="-0.0698" width="160" relative="1" as="geometry">
            <mxPoint x="304" y="460" as="sourcePoint" />
            <mxPoint x="704" y="460" as="targetPoint" />
            <Array as="points">
              <mxPoint x="564" y="460" />
              <mxPoint x="584" y="460" />
            </Array>
            <mxPoint as="offset" />
          </mxGeometry>
        </mxCell>
        <mxCell id="r4HovYRIJpQVSQgWtDEo-67" value="&lt;b&gt;GameObject&lt;/b&gt;" style="html=1;whiteSpace=wrap;" vertex="1" parent="1">
          <mxGeometry x="706" y="435" width="98" height="50" as="geometry" />
        </mxCell>
      </root>
    </mxGraphModel>
  </diagram>
</mxfile>
